<mxfile host="app.diagrams.net" modified="2023-10-03T10:22:55.860Z" agent="Mozilla/5.0 (Macintosh; Intel Mac OS X 10_15_7) AppleWebKit/537.36 (KHTML, like Gecko) Chrome/117.0.0.0 Safari/537.36" etag="_E5NmgjteS3r_DhqbEhD" version="21.8.2" type="device">
  <diagram name="Страница 1" id="Tx8E7D5D8GFHcgZXqqEq">
    <mxGraphModel dx="2047" dy="1317" grid="1" gridSize="16" guides="1" tooltips="1" connect="1" arrows="1" fold="1" page="1" pageScale="1" pageWidth="827" pageHeight="1169" math="0" shadow="0">
      <root>
        <mxCell id="0" />
        <mxCell id="1" parent="0" />
        <mxCell id="LSmHs6NhPEWxk4D89v96-4" value="&lt;span style=&quot;font-size: 18px;&quot;&gt;Сотрудник&lt;/span&gt;" style="rounded=0;whiteSpace=wrap;html=1;" parent="1" vertex="1">
          <mxGeometry x="150" y="738" width="190" height="96" as="geometry" />
        </mxCell>
        <mxCell id="LSmHs6NhPEWxk4D89v96-5" value="&lt;span style=&quot;font-size: 18px;&quot;&gt;Разряд&lt;/span&gt;" style="rounded=0;whiteSpace=wrap;html=1;" parent="1" vertex="1">
          <mxGeometry x="633" y="908" width="150" height="100" as="geometry" />
        </mxCell>
        <mxCell id="LSmHs6NhPEWxk4D89v96-19" value="&lt;font style=&quot;font-size: 15px;&quot;&gt;Включает&lt;/font&gt;" style="rhombus;whiteSpace=wrap;html=1;" parent="1" vertex="1">
          <mxGeometry x="384" y="912" width="144" height="96" as="geometry" />
        </mxCell>
        <mxCell id="LSmHs6NhPEWxk4D89v96-56" value="&lt;u&gt;ID&lt;/u&gt;" style="ellipse;whiteSpace=wrap;html=1;" parent="1" vertex="1">
          <mxGeometry x="-32" y="618" width="120" height="80" as="geometry" />
        </mxCell>
        <mxCell id="LSmHs6NhPEWxk4D89v96-57" value="ФИО" style="ellipse;whiteSpace=wrap;html=1;" parent="1" vertex="1">
          <mxGeometry x="-32" y="746" width="120" height="80" as="geometry" />
        </mxCell>
        <mxCell id="CZ-r4qxeb7wRKjXXscDI-5" value="" style="endArrow=none;html=1;rounded=0;exitX=1;exitY=0.5;exitDx=0;exitDy=0;entryX=0.25;entryY=0;entryDx=0;entryDy=0;" parent="1" source="LSmHs6NhPEWxk4D89v96-56" target="LSmHs6NhPEWxk4D89v96-4" edge="1">
          <mxGeometry width="50" height="50" relative="1" as="geometry">
            <mxPoint x="288" y="738" as="sourcePoint" />
            <mxPoint x="338" y="688" as="targetPoint" />
          </mxGeometry>
        </mxCell>
        <mxCell id="CZ-r4qxeb7wRKjXXscDI-6" value="" style="endArrow=none;html=1;rounded=0;exitX=1;exitY=0.5;exitDx=0;exitDy=0;entryX=0;entryY=0.5;entryDx=0;entryDy=0;" parent="1" source="LSmHs6NhPEWxk4D89v96-57" target="LSmHs6NhPEWxk4D89v96-4" edge="1">
          <mxGeometry width="50" height="50" relative="1" as="geometry">
            <mxPoint x="288" y="738" as="sourcePoint" />
            <mxPoint x="338" y="688" as="targetPoint" />
          </mxGeometry>
        </mxCell>
        <mxCell id="CZ-r4qxeb7wRKjXXscDI-15" value="" style="endArrow=none;html=1;rounded=0;entryX=0;entryY=0.5;entryDx=0;entryDy=0;exitX=1;exitY=0.5;exitDx=0;exitDy=0;" parent="1" source="LSmHs6NhPEWxk4D89v96-19" target="LSmHs6NhPEWxk4D89v96-5" edge="1">
          <mxGeometry width="50" height="50" relative="1" as="geometry">
            <mxPoint x="464" y="738" as="sourcePoint" />
            <mxPoint x="514" y="688" as="targetPoint" />
          </mxGeometry>
        </mxCell>
        <mxCell id="ATCTV8owNIN2bcN78eVB-31" value="Должность" style="ellipse;whiteSpace=wrap;html=1;" parent="1" vertex="1">
          <mxGeometry x="-32" y="880" width="120" height="80" as="geometry" />
        </mxCell>
        <mxCell id="ATCTV8owNIN2bcN78eVB-32" value="" style="endArrow=none;html=1;rounded=0;exitX=1;exitY=0.5;exitDx=0;exitDy=0;entryX=0.25;entryY=1;entryDx=0;entryDy=0;" parent="1" source="ATCTV8owNIN2bcN78eVB-31" target="LSmHs6NhPEWxk4D89v96-4" edge="1">
          <mxGeometry width="50" height="50" relative="1" as="geometry">
            <mxPoint x="448" y="610" as="sourcePoint" />
            <mxPoint x="498" y="560" as="targetPoint" />
          </mxGeometry>
        </mxCell>
        <mxCell id="4cW8gLTpnwzLnQmIQ6q2-2" value="" style="endArrow=none;html=1;rounded=0;exitX=0.5;exitY=1;exitDx=0;exitDy=0;entryX=0;entryY=0.5;entryDx=0;entryDy=0;" edge="1" parent="1" source="LSmHs6NhPEWxk4D89v96-4" target="LSmHs6NhPEWxk4D89v96-19">
          <mxGeometry width="50" height="50" relative="1" as="geometry">
            <mxPoint x="464" y="754" as="sourcePoint" />
            <mxPoint x="514" y="704" as="targetPoint" />
            <Array as="points">
              <mxPoint x="245" y="960" />
            </Array>
          </mxGeometry>
        </mxCell>
        <mxCell id="4cW8gLTpnwzLnQmIQ6q2-3" value="ID" style="ellipse;whiteSpace=wrap;html=1;" vertex="1" parent="1">
          <mxGeometry x="827" y="816" width="120" height="80" as="geometry" />
        </mxCell>
        <mxCell id="4cW8gLTpnwzLnQmIQ6q2-4" value="Коэффициент" style="ellipse;whiteSpace=wrap;html=1;" vertex="1" parent="1">
          <mxGeometry x="827" y="918" width="120" height="80" as="geometry" />
        </mxCell>
        <mxCell id="4cW8gLTpnwzLnQmIQ6q2-5" value="" style="endArrow=none;html=1;rounded=0;entryX=0;entryY=0.5;entryDx=0;entryDy=0;exitX=0.75;exitY=0;exitDx=0;exitDy=0;" edge="1" parent="1" source="LSmHs6NhPEWxk4D89v96-5" target="4cW8gLTpnwzLnQmIQ6q2-3">
          <mxGeometry width="50" height="50" relative="1" as="geometry">
            <mxPoint x="464" y="690" as="sourcePoint" />
            <mxPoint x="514" y="640" as="targetPoint" />
          </mxGeometry>
        </mxCell>
        <mxCell id="4cW8gLTpnwzLnQmIQ6q2-6" value="" style="endArrow=none;html=1;rounded=0;entryX=0;entryY=0.5;entryDx=0;entryDy=0;exitX=1;exitY=0.5;exitDx=0;exitDy=0;" edge="1" parent="1" source="LSmHs6NhPEWxk4D89v96-5" target="4cW8gLTpnwzLnQmIQ6q2-4">
          <mxGeometry width="50" height="50" relative="1" as="geometry">
            <mxPoint x="464" y="690" as="sourcePoint" />
            <mxPoint x="514" y="640" as="targetPoint" />
          </mxGeometry>
        </mxCell>
        <mxCell id="4cW8gLTpnwzLnQmIQ6q2-8" value="&lt;span style=&quot;font-size: 18px;&quot;&gt;Платежная история&lt;/span&gt;" style="rounded=0;whiteSpace=wrap;html=1;" vertex="1" parent="1">
          <mxGeometry x="633" y="382" width="150" height="100" as="geometry" />
        </mxCell>
        <mxCell id="4cW8gLTpnwzLnQmIQ6q2-9" value="" style="endArrow=none;html=1;rounded=0;exitX=0.5;exitY=0;exitDx=0;exitDy=0;entryX=0;entryY=0.5;entryDx=0;entryDy=0;" edge="1" parent="1" source="LSmHs6NhPEWxk4D89v96-4" target="4cW8gLTpnwzLnQmIQ6q2-10">
          <mxGeometry width="50" height="50" relative="1" as="geometry">
            <mxPoint x="464" y="690" as="sourcePoint" />
            <mxPoint x="514" y="640" as="targetPoint" />
            <Array as="points">
              <mxPoint x="245" y="432" />
            </Array>
          </mxGeometry>
        </mxCell>
        <mxCell id="4cW8gLTpnwzLnQmIQ6q2-10" value="&lt;font style=&quot;font-size: 15px;&quot;&gt;Включает&lt;/font&gt;" style="rhombus;whiteSpace=wrap;html=1;" vertex="1" parent="1">
          <mxGeometry x="384" y="384" width="144" height="96" as="geometry" />
        </mxCell>
        <mxCell id="4cW8gLTpnwzLnQmIQ6q2-11" value="ID" style="ellipse;whiteSpace=wrap;html=1;" vertex="1" parent="1">
          <mxGeometry x="648" y="208" width="120" height="80" as="geometry" />
        </mxCell>
        <mxCell id="4cW8gLTpnwzLnQmIQ6q2-12" value="" style="endArrow=none;html=1;rounded=0;entryX=0.5;entryY=1;entryDx=0;entryDy=0;exitX=0.5;exitY=0;exitDx=0;exitDy=0;" edge="1" parent="1" source="4cW8gLTpnwzLnQmIQ6q2-8" target="4cW8gLTpnwzLnQmIQ6q2-11">
          <mxGeometry width="50" height="50" relative="1" as="geometry">
            <mxPoint x="503" y="530" as="sourcePoint" />
            <mxPoint x="553" y="480" as="targetPoint" />
          </mxGeometry>
        </mxCell>
        <mxCell id="4cW8gLTpnwzLnQmIQ6q2-13" value="Месяц" style="ellipse;whiteSpace=wrap;html=1;" vertex="1" parent="1">
          <mxGeometry x="784" y="208" width="120" height="80" as="geometry" />
        </mxCell>
        <mxCell id="4cW8gLTpnwzLnQmIQ6q2-14" value="Начисления" style="ellipse;whiteSpace=wrap;html=1;" vertex="1" parent="1">
          <mxGeometry x="866" y="288" width="120" height="80" as="geometry" />
        </mxCell>
        <mxCell id="4cW8gLTpnwzLnQmIQ6q2-16" value="" style="endArrow=none;html=1;rounded=0;entryX=0;entryY=1;entryDx=0;entryDy=0;exitX=0.75;exitY=0;exitDx=0;exitDy=0;" edge="1" parent="1" source="4cW8gLTpnwzLnQmIQ6q2-8" target="4cW8gLTpnwzLnQmIQ6q2-13">
          <mxGeometry width="50" height="50" relative="1" as="geometry">
            <mxPoint x="503" y="530" as="sourcePoint" />
            <mxPoint x="553" y="480" as="targetPoint" />
          </mxGeometry>
        </mxCell>
        <mxCell id="4cW8gLTpnwzLnQmIQ6q2-17" value="" style="endArrow=none;html=1;rounded=0;entryX=0;entryY=0.5;entryDx=0;entryDy=0;exitX=1;exitY=0;exitDx=0;exitDy=0;" edge="1" parent="1" source="4cW8gLTpnwzLnQmIQ6q2-8" target="4cW8gLTpnwzLnQmIQ6q2-14">
          <mxGeometry width="50" height="50" relative="1" as="geometry">
            <mxPoint x="823" y="368" as="sourcePoint" />
            <mxPoint x="900" y="276" as="targetPoint" />
          </mxGeometry>
        </mxCell>
        <mxCell id="4cW8gLTpnwzLnQmIQ6q2-18" value="Выплаты" style="ellipse;whiteSpace=wrap;html=1;" vertex="1" parent="1">
          <mxGeometry x="866" y="392" width="120" height="80" as="geometry" />
        </mxCell>
        <mxCell id="4cW8gLTpnwzLnQmIQ6q2-19" value="" style="endArrow=none;html=1;rounded=0;entryX=0;entryY=0.5;entryDx=0;entryDy=0;exitX=1;exitY=0.5;exitDx=0;exitDy=0;" edge="1" parent="1" source="4cW8gLTpnwzLnQmIQ6q2-8" target="4cW8gLTpnwzLnQmIQ6q2-18">
          <mxGeometry width="50" height="50" relative="1" as="geometry">
            <mxPoint x="503" y="530" as="sourcePoint" />
            <mxPoint x="553" y="480" as="targetPoint" />
          </mxGeometry>
        </mxCell>
        <mxCell id="4cW8gLTpnwzLnQmIQ6q2-20" value="" style="endArrow=none;html=1;rounded=0;entryX=0;entryY=0.5;entryDx=0;entryDy=0;exitX=1;exitY=0.5;exitDx=0;exitDy=0;" edge="1" parent="1" source="4cW8gLTpnwzLnQmIQ6q2-10" target="4cW8gLTpnwzLnQmIQ6q2-8">
          <mxGeometry width="50" height="50" relative="1" as="geometry">
            <mxPoint x="464" y="690" as="sourcePoint" />
            <mxPoint x="514" y="640" as="targetPoint" />
          </mxGeometry>
        </mxCell>
        <mxCell id="4cW8gLTpnwzLnQmIQ6q2-21" value="Удержания" style="ellipse;whiteSpace=wrap;html=1;" vertex="1" parent="1">
          <mxGeometry x="816" y="496" width="120" height="80" as="geometry" />
        </mxCell>
        <mxCell id="4cW8gLTpnwzLnQmIQ6q2-22" value="" style="endArrow=none;html=1;rounded=0;entryX=0;entryY=0;entryDx=0;entryDy=0;exitX=1;exitY=1;exitDx=0;exitDy=0;" edge="1" parent="1" source="4cW8gLTpnwzLnQmIQ6q2-8" target="4cW8gLTpnwzLnQmIQ6q2-21">
          <mxGeometry width="50" height="50" relative="1" as="geometry">
            <mxPoint x="464" y="690" as="sourcePoint" />
            <mxPoint x="514" y="640" as="targetPoint" />
          </mxGeometry>
        </mxCell>
        <mxCell id="4cW8gLTpnwzLnQmIQ6q2-23" value="&lt;span style=&quot;font-size: 18px;&quot;&gt;Мета-информация системы&lt;/span&gt;" style="rounded=0;whiteSpace=wrap;html=1;" vertex="1" parent="1">
          <mxGeometry x="-208" y="176" width="190" height="96" as="geometry" />
        </mxCell>
        <mxCell id="4cW8gLTpnwzLnQmIQ6q2-24" value="&lt;u&gt;ID&lt;/u&gt;" style="ellipse;whiteSpace=wrap;html=1;" vertex="1" parent="1">
          <mxGeometry x="-173" y="32" width="120" height="80" as="geometry" />
        </mxCell>
        <mxCell id="4cW8gLTpnwzLnQmIQ6q2-25" value="" style="endArrow=none;html=1;rounded=0;exitX=0.5;exitY=0;exitDx=0;exitDy=0;entryX=0.5;entryY=1;entryDx=0;entryDy=0;" edge="1" parent="1" source="4cW8gLTpnwzLnQmIQ6q2-23" target="4cW8gLTpnwzLnQmIQ6q2-24">
          <mxGeometry width="50" height="50" relative="1" as="geometry">
            <mxPoint x="224" y="322" as="sourcePoint" />
            <mxPoint x="274" y="272" as="targetPoint" />
          </mxGeometry>
        </mxCell>
        <mxCell id="4cW8gLTpnwzLnQmIQ6q2-26" value="Подоходный налог" style="ellipse;whiteSpace=wrap;html=1;" vertex="1" parent="1">
          <mxGeometry y="48" width="120" height="80" as="geometry" />
        </mxCell>
        <mxCell id="4cW8gLTpnwzLnQmIQ6q2-27" value="" style="endArrow=none;html=1;rounded=0;exitX=1;exitY=0;exitDx=0;exitDy=0;entryX=0;entryY=1;entryDx=0;entryDy=0;" edge="1" parent="1" source="4cW8gLTpnwzLnQmIQ6q2-23" target="4cW8gLTpnwzLnQmIQ6q2-26">
          <mxGeometry width="50" height="50" relative="1" as="geometry">
            <mxPoint x="224" y="322" as="sourcePoint" />
            <mxPoint x="274" y="272" as="targetPoint" />
          </mxGeometry>
        </mxCell>
        <mxCell id="4cW8gLTpnwzLnQmIQ6q2-28" value="Минимальный размер оклада" style="ellipse;whiteSpace=wrap;html=1;" vertex="1" parent="1">
          <mxGeometry x="48" y="184" width="120" height="80" as="geometry" />
        </mxCell>
        <mxCell id="4cW8gLTpnwzLnQmIQ6q2-30" value="" style="endArrow=none;html=1;rounded=0;exitX=1;exitY=0.5;exitDx=0;exitDy=0;entryX=0;entryY=0.5;entryDx=0;entryDy=0;" edge="1" parent="1" source="4cW8gLTpnwzLnQmIQ6q2-23" target="4cW8gLTpnwzLnQmIQ6q2-28">
          <mxGeometry width="50" height="50" relative="1" as="geometry">
            <mxPoint x="224" y="322" as="sourcePoint" />
            <mxPoint x="274" y="272" as="targetPoint" />
          </mxGeometry>
        </mxCell>
        <mxCell id="4cW8gLTpnwzLnQmIQ6q2-31" value="Пенсионный взнос" style="ellipse;whiteSpace=wrap;html=1;" vertex="1" parent="1">
          <mxGeometry x="-173" y="336" width="120" height="80" as="geometry" />
        </mxCell>
        <mxCell id="4cW8gLTpnwzLnQmIQ6q2-32" value="Профсоюзный взнос" style="ellipse;whiteSpace=wrap;html=1;" vertex="1" parent="1">
          <mxGeometry x="-384" y="184" width="120" height="80" as="geometry" />
        </mxCell>
        <mxCell id="4cW8gLTpnwzLnQmIQ6q2-36" value="" style="endArrow=none;html=1;rounded=0;exitX=1;exitY=0.5;exitDx=0;exitDy=0;entryX=0;entryY=0.5;entryDx=0;entryDy=0;" edge="1" parent="1" source="4cW8gLTpnwzLnQmIQ6q2-32" target="4cW8gLTpnwzLnQmIQ6q2-23">
          <mxGeometry width="50" height="50" relative="1" as="geometry">
            <mxPoint x="112" y="322" as="sourcePoint" />
            <mxPoint x="162" y="272" as="targetPoint" />
          </mxGeometry>
        </mxCell>
        <mxCell id="4cW8gLTpnwzLnQmIQ6q2-37" value="" style="endArrow=none;html=1;rounded=0;exitX=0.5;exitY=0;exitDx=0;exitDy=0;entryX=0.5;entryY=1;entryDx=0;entryDy=0;" edge="1" parent="1" source="4cW8gLTpnwzLnQmIQ6q2-31" target="4cW8gLTpnwzLnQmIQ6q2-23">
          <mxGeometry width="50" height="50" relative="1" as="geometry">
            <mxPoint x="112" y="322" as="sourcePoint" />
            <mxPoint x="162" y="272" as="targetPoint" />
          </mxGeometry>
        </mxCell>
        <mxCell id="4cW8gLTpnwzLnQmIQ6q2-38" value="1" style="text;html=1;strokeColor=none;fillColor=none;align=center;verticalAlign=middle;whiteSpace=wrap;rounded=0;" vertex="1" parent="1">
          <mxGeometry x="304" y="918" width="60" height="30" as="geometry" />
        </mxCell>
        <mxCell id="4cW8gLTpnwzLnQmIQ6q2-39" value="1" style="text;html=1;strokeColor=none;fillColor=none;align=center;verticalAlign=middle;whiteSpace=wrap;rounded=0;" vertex="1" parent="1">
          <mxGeometry x="528" y="918" width="60" height="30" as="geometry" />
        </mxCell>
        <mxCell id="4cW8gLTpnwzLnQmIQ6q2-40" value="1" style="text;html=1;strokeColor=none;fillColor=none;align=center;verticalAlign=middle;whiteSpace=wrap;rounded=0;" vertex="1" parent="1">
          <mxGeometry x="304" y="386" width="60" height="30" as="geometry" />
        </mxCell>
        <mxCell id="4cW8gLTpnwzLnQmIQ6q2-41" value="N" style="text;html=1;strokeColor=none;fillColor=none;align=center;verticalAlign=middle;whiteSpace=wrap;rounded=0;" vertex="1" parent="1">
          <mxGeometry x="528" y="386" width="60" height="30" as="geometry" />
        </mxCell>
      </root>
    </mxGraphModel>
  </diagram>
</mxfile>
